<svg xmlns="http://www.w3.org/2000/svg" width="512" height="512" viewBox="0 0 512 512">
  <rect width="512" height="512" rx="80" fill="#1a1208"/>
  <rect x="120" y="80" width="272" height="340" rx="14" fill="#f5e8c8" opacity="0.9"/>
  <rect x="120" y="80" width="60" height="340" rx="14" fill="#c9a84c" opacity="0.2"/>
  <line x1="200" y1="130" x2="360" y2="130" stroke="#d4c4a0" stroke-width="3"/>
  <line x1="200" y1="158" x2="360" y2="158" stroke="#d4c4a0" stroke-width="3"/>
  <line x1="200" y1="186" x2="310" y2="186" stroke="#d4c4a0" stroke-width="3"/>
  <line x1="200" y1="226" x2="360" y2="226" stroke="#d4c4a0" stroke-width="3"/>
  <line x1="200" y1="254" x2="360" y2="254" stroke="#d4c4a0" stroke-width="3"/>
  <line x1="200" y1="282" x2="320" y2="282" stroke="#d4c4a0" stroke-width="3"/>
  <line x1="200" y1="322" x2="360" y2="322" stroke="#d4c4a0" stroke-width="3"/>
  <line x1="200" y1="350" x2="360" y2="350" stroke="#d4c4a0" stroke-width="3"/>
  <line x1="200" y1="378" x2="330" y2="378" stroke="#d4c4a0" stroke-width="3"/>
  <rect x="240" y="190" width="10" height="80" rx="3" fill="#c9a84c" opacity="0.5"/>
  <rect x="220" y="210" width="50" height="10" rx="3" fill="#c9a84c" opacity="0.5"/>
  <text x="256" y="470" text-anchor="middle" font-family="Georgia,serif" font-size="32" font-weight="bold" fill="#c9a84c">39 LIVROS</text>
</svg>